HIERARCHY
ROOT Hips
{
	OFFSET 0.000000 0.000000 0.000000
	CHANNELS 6 Xposition Yposition Zposition Xrotation Yrotation Zrotation
	JOINT LeftUpLeg_virtual
	{
		OFFSET 0.000000 0.000000 0.000000
		CHANNELS 3 Xrotation Yrotation Zrotation
		JOINT LeftUpLeg
		{
			OFFSET 10.205400 -3.823500 0.155100
			CHANNELS 3 Xrotation Yrotation Zrotation
			JOINT LeftLeg
			{
				OFFSET 0.708757 -12.982077 0.567790
				CHANNELS 3 Xrotation Yrotation Zrotation
				JOINT LeftFoot
				{
					OFFSET -0.708756 -10.717838 -2.184338
					CHANNELS 3 Xrotation Yrotation Zrotation
					JOINT LeftToeBase
					{
						OFFSET 0.108149 -7.191104 7.560241
						CHANNELS 3 Xrotation Yrotation Zrotation
						JOINT LeftToe_End
						{
							OFFSET 0.070230 0.081724 4.490308
							CHANNELS 3 Xrotation Yrotation Zrotation
							End Site
							{
								OFFSET 0 0 0
							}
						}
					}
				}
			}
		}
	}
	JOINT RightUpLeg_virtual
	{
		OFFSET 0.000000 0.000000 0.000000
		CHANNELS 3 Xrotation Yrotation Zrotation
		JOINT RightUpLeg
		{
			OFFSET -10.205400 -3.823500 0.005500
			CHANNELS 3 Xrotation Yrotation Zrotation
			JOINT RightLeg
			{
				OFFSET -0.708756 -12.982134 0.610632
				CHANNELS 3 Xrotation Yrotation Zrotation
				JOINT RightFoot
				{
					OFFSET 0.708754 -10.717769 -1.945823
					CHANNELS 3 Xrotation Yrotation Zrotation
					JOINT RightToeBase
					{
						OFFSET -0.108140 -7.191069 7.372968
						CHANNELS 3 Xrotation Yrotation Zrotation
						JOINT RightToe_End
						{
							OFFSET -0.070227 0.081735 4.479403
							CHANNELS 3 Xrotation Yrotation Zrotation
							End Site
							{
								OFFSET 0 0 0
							}
						}
					}
				}
			}
		}
	}
	JOINT Spine_virtual
	{
		OFFSET 0.000000 0.000000 0.000000
		CHANNELS 3 Xrotation Yrotation Zrotation
		JOINT Spine
		{
			OFFSET 0.000000 6.876099 0.125700
			CHANNELS 3 Xrotation Yrotation Zrotation
			JOINT Spine1
			{
				OFFSET 0.000000 5.730043 0.104720
				CHANNELS 3 Xrotation Yrotation Zrotation
				JOINT Spine1_split
				{
					OFFSET 0.000000 5.730043 0.104720
					CHANNELS 3 Xrotation Yrotation Zrotation
					JOINT Spine2
					{
						OFFSET 0.000000 5.730043 0.104720
						CHANNELS 3 Xrotation Yrotation Zrotation
						JOINT Neck_virtual
						{
							OFFSET 0.000000 0.000000 0.000000
							CHANNELS 3 Xrotation Yrotation Zrotation
							JOINT Neck
							{
								OFFSET 0.000000 10.314075 0.188496
								CHANNELS 3 Xrotation Yrotation Zrotation
								JOINT Head
								{
									OFFSET 0.000000 7.643700 -2.377400
									CHANNELS 3 Xrotation Yrotation Zrotation
									JOINT HeadTop_End
									{
										OFFSET 0.000000 43.788605 -13.619600
										CHANNELS 3 Xrotation Yrotation Zrotation
										End Site
										{
											OFFSET 0 0 0
										}
									}
								}
							}
						}
						JOINT LeftShoulder_virtual
						{
							OFFSET 0.000000 0.000000 0.000000
							CHANNELS 3 Xrotation Yrotation Zrotation
							JOINT LeftShoulder
							{
								OFFSET 2.196100 4.412489 0.087492
								CHANNELS 3 Xrotation Yrotation Zrotation
								JOINT LeftShoulder_split
								{
									OFFSET 2.196100 4.412489 0.087492
									CHANNELS 3 Xrotation Yrotation Zrotation
									JOINT LeftArm
									{
										OFFSET 8.771219 -2.981674 -0.026999
										CHANNELS 3 Xrotation Yrotation Zrotation
										JOINT LeftForeArm
										{
											OFFSET 8.512804 0.000000 -0.000000
											CHANNELS 3 Xrotation Yrotation Zrotation
											JOINT LeftHand
											{
												OFFSET 18.484802 0.000000 -0.000000
												CHANNELS 3 Xrotation Yrotation Zrotation
												End Site
												{
													OFFSET 0 0 0
												}
											}
										}
									}
								}
							}
						}
						JOINT RightShoulder_virtual
						{
							OFFSET 0.000000 0.000000 0.000000
							CHANNELS 3 Xrotation Yrotation Zrotation
							JOINT RightShoulder
							{
								OFFSET -2.196100 4.412496 0.070690
								CHANNELS 3 Xrotation Yrotation Zrotation
								JOINT RightShoulder_split
								{
									OFFSET -2.196100 4.412496 0.070690
									CHANNELS 3 Xrotation Yrotation Zrotation
									JOINT RightArm
									{
										OFFSET -8.771282 -2.981682 -0.094208
										CHANNELS 3 Xrotation Yrotation Zrotation
										JOINT RightForeArm
										{
											OFFSET -8.494598 0.000000 0.000000
											CHANNELS 3 Xrotation Yrotation Zrotation
											JOINT RightHand
											{
												OFFSET -18.483803 0.000000 0.000001
												CHANNELS 3 Xrotation Yrotation Zrotation
												End Site
												{
													OFFSET 0 0 0
												}
											}
										}
									}
								}
							}
						}
					}
				}
			}
		}
	}
}
MOTION
Frames: 5
Frame Time: 0.03333333
-4.758749 7.232801 -26.456995 0.000000 0.000000 0.000000 -98.444992 20.158320 2.845723 -58.898197 16.184972 22.717616 73.072342 11.525674 0.734690 29.073650 3.548326 -13.555095 -4.592439 0.282744 -0.081832 0.000000 0.000000 0.000000 -95.617375 21.091904 2.373325 -27.466142 -3.855166 -51.837014 107.523379 30.637619 3.220910 2.500738 -5.675296 24.764324 0.833200 3.002580 -0.263684 0.000000 0.000000 0.000000 -93.960044 18.705421 -1.521189 55.611486 12.747766 -0.987055 18.349822 4.148549 0.287159 0.084829 -3.675440 0.463003 0.000000 0.000000 0.000000 22.542993 4.319491 -0.229758 12.105735 -1.314539 -4.031824 29.685727 1.766256 0.679411 0.000000 0.000000 0.000000 20.771893 3.587296 0.035272 1.271337 -5.190628 -10.429717 -1.159116 -3.375107 -5.688000 -33.230677 -20.046043 -34.961361 -7.553897 -58.629155 -2.988315 0.000000 0.000000 0.000000 19.669461 3.031163 0.049382 0.477566 13.034728 15.990432 -2.418032 -1.678743 -2.892561 -25.497448 -7.300930 38.062547 2.200269 47.215400 -2.040736 0.000000 0.000000 0.000000 
-5.244492 7.172447 -27.276167 0.000000 0.000000 0.000000 -105.862639 21.448332 3.324490 -57.318346 10.440310 25.557103 73.278081 9.340116 1.990331 32.160844 0.846335 -13.953801 -3.507643 0.581885 -1.198142 0.000000 0.000000 0.000000 -102.593929 22.743767 2.977195 -10.987016 -3.920622 -43.488344 99.221270 30.859457 -0.125812 -3.042678 -7.680771 30.319565 1.019537 3.310304 0.594173 0.000000 0.000000 0.000000 -101.629868 19.650784 -2.105000 53.008972 13.086792 1.058116 19.279908 4.358207 0.468268 0.327775 -3.322877 0.754071 0.000000 0.000000 0.000000 22.702012 4.448822 -0.397953 12.119784 -1.931068 -3.633744 31.609566 1.842242 -1.115584 0.000000 0.000000 0.000000 21.186683 3.733074 0.262985 1.132451 -4.601654 -8.591978 -0.778282 -3.484322 -5.572275 -27.692502 -21.269325 -32.270629 -9.287672 -60.674852 -4.427498 0.000000 0.000000 0.000000 20.142433 3.322579 0.255858 0.281574 13.888441 15.679140 -3.079100 0.669443 -2.707823 -15.394253 -6.085237 38.304671 2.061576 41.544277 -1.225588 0.000000 0.000000 0.000000 
-5.601383 7.257248 -28.060564 0.000000 0.000000 0.000000 -112.444510 22.483516 3.906285 -54.834712 4.845854 28.731710 73.139380 6.708165 3.006783 35.003012 -2.166651 -14.214359 -1.472289 0.833460 -2.102685 0.000000 0.000000 0.000000 -109.077848 24.642436 4.091955 3.038875 -1.120584 -36.821120 91.610267 30.234672 -2.843281 -9.345834 -10.493841 30.838557 1.716507 3.327862 1.555979 0.000000 0.000000 0.000000 -108.849030 21.106190 -2.176237 50.369343 11.827372 3.153366 19.292890 4.041365 0.591001 1.655808 -2.447352 1.671978 0.000000 0.000000 0.000000 22.041229 4.079997 -0.514436 11.738003 -2.417100 -2.754826 31.953479 1.732301 -2.886534 0.000000 0.000000 0.000000 20.587317 3.284276 0.488133 0.785561 -4.669841 -7.155855 -0.250809 -3.507510 -4.901036 -22.012390 -22.003217 -30.644699 -9.866658 -60.728182 -5.019600 0.000000 0.000000 0.000000 19.621527 3.063933 0.458843 0.423334 14.551365 15.013642 -3.886868 2.512807 -2.511082 -4.794910 -3.063321 37.830843 2.110386 33.813569 -0.682745 0.000000 0.000000 0.000000 
-5.881964 7.456284 -28.821173 0.000000 0.000000 0.000000 -118.061391 23.072866 4.764457 -50.589685 0.514882 31.871131 72.008594 4.460242 3.756514 35.265018 -4.411296 -14.262088 0.348915 1.022078 -2.433572 0.000000 0.000000 0.000000 -115.057528 26.197993 5.918692 12.770806 2.862332 -33.411370 87.960802 28.661495 -4.606839 -14.280920 -12.709860 27.347027 2.328512 3.165512 1.900016 0.000000 0.000000 0.000000 -115.251123 22.617340 -1.072537 47.730994 8.780756 4.694423 18.176530 3.091642 0.575712 2.313494 -1.610270 2.244300 0.000000 0.000000 0.000000 20.455752 3.155637 -0.611607 11.042806 -2.707973 -1.484664 31.051570 1.971104 -4.854858 0.000000 0.000000 0.000000 18.953642 2.228445 0.614612 0.343001 -4.934757 -6.335759 0.444650 -3.436435 -3.689919 -15.626730 -22.268975 -29.870132 -8.937157 -58.648478 -4.428911 0.000000 0.000000 0.000000 18.029886 2.101794 0.568376 0.892785 14.469961 14.066881 -4.081100 3.157968 -2.317781 5.647848 0.960846 37.196196 2.468224 29.271110 -0.593053 0.000000 0.000000 0.000000 
-6.135971 7.734238 -29.603960 0.000000 0.000000 0.000000 -122.161758 23.030652 5.589860 -44.964658 -1.965392 35.123517 69.730672 2.745532 4.238530 32.082973 -5.756336 -14.582988 0.943316 1.178265 -2.031492 0.000000 0.000000 0.000000 -120.192820 26.937079 8.195292 17.694988 6.493803 -33.166914 89.652687 26.875280 -5.426927 -16.395837 -13.338434 23.564013 1.632699 2.881098 1.462637 0.000000 0.000000 0.000000 -120.462448 23.622274 1.017862 45.113099 4.192447 5.265656 16.041008 1.556846 0.374002 2.363380 -0.971578 2.450598 0.000000 0.000000 0.000000 18.061491 1.696587 -0.705795 9.691120 -2.758403 -0.240028 29.088509 2.807558 -7.154320 0.000000 0.000000 0.000000 16.506484 0.663302 0.609335 -0.066706 -5.068099 -5.860476 0.716931 -2.930744 -2.751860 -7.829570 -22.041147 -29.244541 -7.364434 -54.730466 -3.363133 0.000000 0.000000 0.000000 15.468659 0.452752 0.518732 1.548553 13.338363 12.987314 -3.442751 2.514272 -2.248425 15.593404 4.934404 36.753914 3.019911 31.581914 -0.964391 0.000000 0.000000 0.000000 
